<?xml version="1.0" encoding="UTF-8" standalone="no"?>
<!-- Created with Inkscape (http://www.inkscape.org/) -->

<svg
   width="59.999996mm"
   height="60mm"
   viewBox="0 0 59.999994 60"
   version="1.1"
   id="svg16573"
   xml:space="preserve"
   inkscape:version="1.3.1 (1:1.3.1+202311172155+91b66b0783)"
   sodipodi:docname="DashboardIcon.svg"
   xmlns:inkscape="http://www.inkscape.org/namespaces/inkscape"
   xmlns:sodipodi="http://sodipodi.sourceforge.net/DTD/sodipodi-0.dtd"
   xmlns="http://www.w3.org/2000/svg"
   xmlns:svg="http://www.w3.org/2000/svg"><sodipodi:namedview
     id="namedview16575"
     pagecolor="#ffffff"
     bordercolor="#666666"
     borderopacity="1.0"
     inkscape:showpageshadow="2"
     inkscape:pageopacity="0.0"
     inkscape:pagecheckerboard="0"
     inkscape:deskcolor="#d1d1d1"
     inkscape:document-units="mm"
     showgrid="false"
     inkscape:zoom="2.8284271"
     inkscape:cx="63.10928"
     inkscape:cy="111.89965"
     inkscape:window-width="1850"
     inkscape:window-height="1043"
     inkscape:window-x="0"
     inkscape:window-y="0"
     inkscape:window-maximized="1"
     inkscape:current-layer="g19044"
     showguides="false"
     inkscape:pageshadow="2" /><defs
     id="defs16570"><inkscape:path-effect
       effect="powerclip"
       id="path-effect6"
       is_visible="true"
       lpeversion="1"
       inverse="true"
       flatten="false"
       hide_clip="false"
       message="Use fill-rule evenodd on &lt;b&gt;fill and stroke&lt;/b&gt; dialog if no flatten result after convert clip to paths." /><inkscape:path-effect
       effect="fillet_chamfer"
       id="path-effect17206"
       is_visible="true"
       lpeversion="1"
       nodesatellites_param="F,0,1,1,0,0,0,1 @ F,0,0,1,0,6.7118,0,1 @ F,0,0,1,0,3.1660978,0,1 @ F,0,0,1,0,0,0,1 @ F,0,0,1,0,9.5443865,0,1 @ F,0,0,1,0,9.5443865,0,1 @ F,0,0,1,0,0,0,1 @ F,0,0,1,0,3.1660978,0,1 @ F,0,1,1,0,6.7118,0,1 @ F,0,1,1,0,0,0,1"
       unit="px"
       method="auto"
       mode="F"
       radius="0"
       chamfer_steps="1"
       flexible="false"
       use_knot_distance="true"
       apply_no_radius="true"
       apply_with_radius="true"
       only_selected="false"
       hide_knots="false" /><clipPath
       clipPathUnits="userSpaceOnUse"
       id="clipPath6"><path
         id="path6"
         style="display:block;fill:#f25774;fill-opacity:1;stroke:none;stroke-width:3.43995;stroke-linecap:square;stroke-dasharray:none;stroke-opacity:1"
         d="m 189.22006,200.5095 v 23.82927 0.12266 0.78749 h 0.45507 24.28613 v -0.91015 H 191.2519 l 19.84913,-11.45867 -0.45507,-0.78927 -20.51575,11.84441 V 200.5095 Z" /></clipPath></defs><g
     inkscape:label="Layer 1"
     inkscape:groupmode="layer"
     id="layer1"
     transform="translate(91.798483,-215.34441)"><g
       id="g19692"
       transform="matrix(0.2907024,0,0,0.2907024,-81.225989,173.99957)"
       style="stroke-width:3.43995"><path
         id="path17172"
         style="fill:#6c757d;fill-opacity:1;stroke:none;stroke-width:0.91015px;stroke-linecap:butt;stroke-linejoin:miter;stroke-opacity:1"
         d="m 21.433317,199.51754 a 9.5434271,9.5434271 0 0 0 -9.543087,9.54412 l 0.0057,57.10917 -10.490316,9.83506 a 7.3085046,7.3085046 0 0 0 -2.3094198,5.33146 v 3.30006 a 6.689415,6.689415 0 0 0 6.711735,6.68951 l 61.0215988,-0.20412 61.021592,0.20412 a 6.689415,6.689415 0 0 0 6.71174,-6.68951 v -3.30006 a 7.3085059,7.3085059 0 0 0 -2.30994,-5.33146 l -10.4898,-9.83506 -0.006,-57.10917 a 9.5453889,9.5453889 0 0 0 -9.54515,-9.54412 z m -0.12609,4.42763 H 112.3518 c 2.4556,0 4.43229,1.97721 4.43229,4.43281 v 50.46152 c 0,2.45559 -1.97669,4.4328 -4.43229,4.4328 H 21.307227 c -2.455597,0 -4.432805,-1.97721 -4.432805,-4.4328 v -50.46152 c 0,-2.4556 1.977208,-4.43281 4.432805,-4.43281 z" /><g
         id="g19044"
         transform="translate(-104.96528,9.796287)"
         style="stroke-width:3.43995"><g
           id="g1"
           transform="matrix(0.53515132,0,0,0.52849618,60.146765,115.61591)"
           style="stroke-width:6.46832981;stroke:#6c757d;stroke-opacity:1;stroke-dasharray:none"><rect
             style="fill:#6c757d;stroke:#6c757d;stroke-width:6.46832981;stroke-linecap:square;stroke-opacity:1;stroke-dasharray:none"
             id="rect1"
             width="4.2289519"
             height="20.070635"
             x="131.54465"
             y="220.91341" /><rect
             style="fill:#6c757d;stroke:#6c757d;stroke-width:6.46832981;stroke-linecap:square;stroke-opacity:1;stroke-dasharray:none"
             id="rect1-5"
             width="4.2289519"
             height="26.07909"
             x="145.7043"
             y="214.90495" /><rect
             style="fill:#6c757d;stroke:#6c757d;stroke-width:6.46832981;stroke-linecap:square;stroke-opacity:1;stroke-dasharray:none"
             id="rect1-6"
             width="4.2289519"
             height="34.987129"
             x="159.86395"
             y="205.99692" /><rect
             style="fill:#6c757d;stroke:#6c757d;stroke-width:6.46832981;stroke-linecap:square;stroke-opacity:1;stroke-dasharray:none"
             id="rect1-6-2"
             width="4.2289519"
             height="40.831699"
             x="174.02362"
             y="200.15234" /></g><g
           id="g4"
           transform="matrix(0.57148419,-0.35857113,0.35857113,0.57148419,166.88603,221.33015)"
           style="fill:#6c757d;fill-opacity:1;stroke-width:64.0092">
	<path
   style="fill:#6c757d;fill-opacity:1;stroke-width:64.0092"
   d="M 31,26.962 H 57.924 C 56.94,12.541 45.421,1.022 31,0.038 Z"
   id="path1-0" />
	<path
   style="fill:#6c757d;fill-opacity:1;stroke-width:64.0092"
   d="M 50.386,48.615 C 54.729,43.905 57.537,37.757 58,30.962 H 32.733 Z"
   id="path2" />
	<path
   style="fill:#6c757d;fill-opacity:1;stroke-width:64.0092"
   d="M 27,28.134 V 0.038 C 11.918,1.067 0,13.619 0,28.962 0,36.25 2.695,42.905 7.134,48 Z"
   id="path3" />
	<path
   style="fill:#6c757d;fill-opacity:1;stroke-width:64.0092"
   d="M 28.414,32.376 9.962,50.828 c 5.095,4.439 11.75,7.134 19.038,7.134 6.99,0 13.396,-2.479 18.401,-6.599 z"
   id="path4" />
</g></g></g><ellipse
       style="fill:none;fill-opacity:1;stroke:#6c757d;stroke-width:3;stroke-dasharray:none;stroke-opacity:1"
       id="path10056"
       cx="-61.798485"
       cy="245.34441"
       rx="28.499998"
       ry="28.5" /></g></svg>
